<mxfile host="Electron" modified="2024-04-05T16:23:18.659Z" agent="Mozilla/5.0 (Macintosh; Intel Mac OS X 10_15_7) AppleWebKit/537.36 (KHTML, like Gecko) draw.io/24.1.0 Chrome/120.0.6099.109 Electron/28.1.0 Safari/537.36" etag="csjUCZ61ALEn4lh0Yjw3" version="24.1.0" type="device">
  <diagram name="Страница — 1" id="Xgo9ZCm3MwXgv6VJzKZY">
    <mxGraphModel dx="1114" dy="783" grid="1" gridSize="10" guides="1" tooltips="1" connect="1" arrows="1" fold="1" page="1" pageScale="1" pageWidth="827" pageHeight="1169" math="0" shadow="0">
      <root>
        <mxCell id="0" />
        <mxCell id="1" parent="0" />
        <mxCell id="Hyo_K2XNloM1mxokHbsi-5" value="Class Dog" style="rounded=0;whiteSpace=wrap;html=1;" vertex="1" parent="1">
          <mxGeometry x="20" y="630" width="120" height="60" as="geometry" />
        </mxCell>
        <mxCell id="Hyo_K2XNloM1mxokHbsi-6" value="Class Cat" style="rounded=0;whiteSpace=wrap;html=1;" vertex="1" parent="1">
          <mxGeometry x="170" y="630" width="120" height="60" as="geometry" />
        </mxCell>
        <mxCell id="Hyo_K2XNloM1mxokHbsi-7" value="Class petanimal" style="rounded=0;whiteSpace=wrap;html=1;" vertex="1" parent="1">
          <mxGeometry x="160" y="440" width="120" height="60" as="geometry" />
        </mxCell>
        <mxCell id="Hyo_K2XNloM1mxokHbsi-8" value="Class Hamster" style="rounded=0;whiteSpace=wrap;html=1;" vertex="1" parent="1">
          <mxGeometry x="310" y="630" width="120" height="60" as="geometry" />
        </mxCell>
        <mxCell id="Hyo_K2XNloM1mxokHbsi-9" value="" style="endArrow=classic;html=1;rounded=0;entryX=0.25;entryY=1;entryDx=0;entryDy=0;" edge="1" parent="1" target="Hyo_K2XNloM1mxokHbsi-7">
          <mxGeometry width="50" height="50" relative="1" as="geometry">
            <mxPoint x="80" y="620" as="sourcePoint" />
            <mxPoint x="130" y="570" as="targetPoint" />
            <Array as="points" />
          </mxGeometry>
        </mxCell>
        <mxCell id="Hyo_K2XNloM1mxokHbsi-22" value="Extends" style="edgeLabel;html=1;align=center;verticalAlign=middle;resizable=0;points=[];" vertex="1" connectable="0" parent="Hyo_K2XNloM1mxokHbsi-9">
          <mxGeometry x="0.043" y="-1" relative="1" as="geometry">
            <mxPoint as="offset" />
          </mxGeometry>
        </mxCell>
        <mxCell id="Hyo_K2XNloM1mxokHbsi-10" value="" style="endArrow=classic;html=1;rounded=0;entryX=0.567;entryY=1.067;entryDx=0;entryDy=0;entryPerimeter=0;" edge="1" parent="1">
          <mxGeometry width="50" height="50" relative="1" as="geometry">
            <mxPoint x="230.98" y="630" as="sourcePoint" />
            <mxPoint x="229.01999999999995" y="504.02" as="targetPoint" />
          </mxGeometry>
        </mxCell>
        <mxCell id="Hyo_K2XNloM1mxokHbsi-23" value="Extends" style="edgeLabel;html=1;align=center;verticalAlign=middle;resizable=0;points=[];" vertex="1" connectable="0" parent="Hyo_K2XNloM1mxokHbsi-10">
          <mxGeometry x="0.0319" relative="1" as="geometry">
            <mxPoint as="offset" />
          </mxGeometry>
        </mxCell>
        <mxCell id="Hyo_K2XNloM1mxokHbsi-11" value="" style="endArrow=classic;html=1;rounded=0;entryX=0.833;entryY=1.067;entryDx=0;entryDy=0;entryPerimeter=0;" edge="1" parent="1" target="Hyo_K2XNloM1mxokHbsi-7">
          <mxGeometry width="50" height="50" relative="1" as="geometry">
            <mxPoint x="370" y="620" as="sourcePoint" />
            <mxPoint x="420" y="570" as="targetPoint" />
          </mxGeometry>
        </mxCell>
        <mxCell id="Hyo_K2XNloM1mxokHbsi-24" value="Extends" style="edgeLabel;html=1;align=center;verticalAlign=middle;resizable=0;points=[];" vertex="1" connectable="0" parent="Hyo_K2XNloM1mxokHbsi-11">
          <mxGeometry x="-0.0173" y="-1" relative="1" as="geometry">
            <mxPoint x="1" as="offset" />
          </mxGeometry>
        </mxCell>
        <mxCell id="Hyo_K2XNloM1mxokHbsi-12" value="Class Horse" style="rounded=0;whiteSpace=wrap;html=1;" vertex="1" parent="1">
          <mxGeometry x="460" y="630" width="120" height="60" as="geometry" />
        </mxCell>
        <mxCell id="Hyo_K2XNloM1mxokHbsi-13" value="Class Camel" style="rounded=0;whiteSpace=wrap;html=1;" vertex="1" parent="1">
          <mxGeometry x="600" y="630" width="120" height="60" as="geometry" />
        </mxCell>
        <mxCell id="Hyo_K2XNloM1mxokHbsi-14" value="Class Donkey" style="rounded=0;whiteSpace=wrap;html=1;" vertex="1" parent="1">
          <mxGeometry x="750" y="630" width="120" height="60" as="geometry" />
        </mxCell>
        <mxCell id="Hyo_K2XNloM1mxokHbsi-15" value="Class packanimal" style="rounded=0;whiteSpace=wrap;html=1;" vertex="1" parent="1">
          <mxGeometry x="610" y="450" width="120" height="60" as="geometry" />
        </mxCell>
        <mxCell id="Hyo_K2XNloM1mxokHbsi-16" value="" style="endArrow=classic;html=1;rounded=0;entryX=0.442;entryY=1.067;entryDx=0;entryDy=0;entryPerimeter=0;" edge="1" parent="1" target="Hyo_K2XNloM1mxokHbsi-15">
          <mxGeometry width="50" height="50" relative="1" as="geometry">
            <mxPoint x="660" y="630" as="sourcePoint" />
            <mxPoint x="710" y="580" as="targetPoint" />
          </mxGeometry>
        </mxCell>
        <mxCell id="Hyo_K2XNloM1mxokHbsi-26" value="Extends" style="edgeLabel;html=1;align=center;verticalAlign=middle;resizable=0;points=[];" vertex="1" connectable="0" parent="Hyo_K2XNloM1mxokHbsi-16">
          <mxGeometry x="0.1727" relative="1" as="geometry">
            <mxPoint as="offset" />
          </mxGeometry>
        </mxCell>
        <mxCell id="Hyo_K2XNloM1mxokHbsi-17" value="" style="endArrow=classic;html=1;rounded=0;entryX=0.183;entryY=1.05;entryDx=0;entryDy=0;entryPerimeter=0;" edge="1" parent="1" target="Hyo_K2XNloM1mxokHbsi-15">
          <mxGeometry width="50" height="50" relative="1" as="geometry">
            <mxPoint x="510" y="630" as="sourcePoint" />
            <mxPoint x="560" y="580" as="targetPoint" />
          </mxGeometry>
        </mxCell>
        <mxCell id="Hyo_K2XNloM1mxokHbsi-25" value="Extends" style="edgeLabel;html=1;align=center;verticalAlign=middle;resizable=0;points=[];" vertex="1" connectable="0" parent="Hyo_K2XNloM1mxokHbsi-17">
          <mxGeometry x="0.1549" y="1" relative="1" as="geometry">
            <mxPoint y="1" as="offset" />
          </mxGeometry>
        </mxCell>
        <mxCell id="Hyo_K2XNloM1mxokHbsi-18" value="" style="endArrow=classic;html=1;rounded=0;" edge="1" parent="1">
          <mxGeometry width="50" height="50" relative="1" as="geometry">
            <mxPoint x="810" y="630" as="sourcePoint" />
            <mxPoint x="710" y="520" as="targetPoint" />
          </mxGeometry>
        </mxCell>
        <mxCell id="Hyo_K2XNloM1mxokHbsi-27" value="Extends" style="edgeLabel;html=1;align=center;verticalAlign=middle;resizable=0;points=[];" vertex="1" connectable="0" parent="Hyo_K2XNloM1mxokHbsi-18">
          <mxGeometry x="0.2389" y="-1" relative="1" as="geometry">
            <mxPoint as="offset" />
          </mxGeometry>
        </mxCell>
        <mxCell id="Hyo_K2XNloM1mxokHbsi-19" value="Class Animals" style="rounded=0;whiteSpace=wrap;html=1;" vertex="1" parent="1">
          <mxGeometry x="400" y="290" width="120" height="60" as="geometry" />
        </mxCell>
        <mxCell id="Hyo_K2XNloM1mxokHbsi-31" value="" style="endArrow=classic;html=1;rounded=0;entryX=0.108;entryY=1.067;entryDx=0;entryDy=0;entryPerimeter=0;" edge="1" parent="1" target="Hyo_K2XNloM1mxokHbsi-19">
          <mxGeometry width="50" height="50" relative="1" as="geometry">
            <mxPoint x="280" y="470" as="sourcePoint" />
            <mxPoint x="330" y="420" as="targetPoint" />
          </mxGeometry>
        </mxCell>
        <mxCell id="Hyo_K2XNloM1mxokHbsi-34" value="Extends" style="edgeLabel;html=1;align=center;verticalAlign=middle;resizable=0;points=[];" vertex="1" connectable="0" parent="Hyo_K2XNloM1mxokHbsi-31">
          <mxGeometry x="0.0781" y="-2" relative="1" as="geometry">
            <mxPoint as="offset" />
          </mxGeometry>
        </mxCell>
        <mxCell id="Hyo_K2XNloM1mxokHbsi-33" value="" style="endArrow=classic;html=1;rounded=0;entryX=0.875;entryY=1.083;entryDx=0;entryDy=0;entryPerimeter=0;exitX=0;exitY=0.5;exitDx=0;exitDy=0;" edge="1" parent="1" source="Hyo_K2XNloM1mxokHbsi-15" target="Hyo_K2XNloM1mxokHbsi-19">
          <mxGeometry width="50" height="50" relative="1" as="geometry">
            <mxPoint x="580" y="480" as="sourcePoint" />
            <mxPoint x="630" y="430" as="targetPoint" />
          </mxGeometry>
        </mxCell>
        <mxCell id="Hyo_K2XNloM1mxokHbsi-35" value="Extends" style="edgeLabel;html=1;align=center;verticalAlign=middle;resizable=0;points=[];" vertex="1" connectable="0" parent="Hyo_K2XNloM1mxokHbsi-33">
          <mxGeometry x="0.123" y="-1" relative="1" as="geometry">
            <mxPoint as="offset" />
          </mxGeometry>
        </mxCell>
      </root>
    </mxGraphModel>
  </diagram>
</mxfile>
